# xmcd CD database file
#
# Track frame offsets:
#	150
#	13827
#	27118
#	41772
#	55762
#	69632
#	81669
#	94187
#	106899
#	118454
#	132056
#	144451
#	156437
#	168981
#	182068
#	194840
#	207405
#	218342
#
# Disc length: 3060 seconds
#
# Revision: 2
# Processed by: cddbd v1.5.2PL0 Copyright (c) Steve Scherf et al.
# Submitted via: CDex 1.51
#
DISCID=0d0bf212
DTITLE=Peetie Wheatstraw - The Essential_CD2
DYEAR=2002
DGENRE=Blues
TTITLE0=More Good Whiskey Blues 
TTITLE1=These Times 
TTITLE2=Long Time Ago Blues 
TTITLE3=Third Street's Going Down 
TTITLE4=What More Can A Man Do?
TTITLE5=Peetie Wheatstraw Stomp No.2 
TTITLE6=Cocktail Man Blues 
TTITLE7=Machine Gun Blues 
TTITLE8=You Can't Stop Me From Drinking 
TTITLE9=King Spider Blues 
TTITLE10=Johnny Blues 
TTITLE11=I Want Some Sea Food 
TTITLE12=The Good Lawd's Children 
TTITLE13=You Got To Tell Me Something 
TTITLE14=Throw Me In The Alley 
TTITLE15=Gangsters Blues 
TTITLE16=Mister Livingood 
TTITLE17=Separation Day Blues 
EXTD=william hale YEAR: 2002
EXTT0=
EXTT1=
EXTT2=
EXTT3=
EXTT4=
EXTT5=
EXTT6=
EXTT7=
EXTT8=
EXTT9=
EXTT10=
EXTT11=
EXTT12=
EXTT13=
EXTT14=
EXTT15=
EXTT16=
EXTT17=
PLAYORDER=
